<?xml version="1.0" encoding="utf-8"?>
<!-- Generator: Adobe Illustrator 23.0.1, SVG Export Plug-In . SVG Version: 6.00 Build 0)  -->
<svg version="1.1" id="Capa_1" xmlns="http://www.w3.org/2000/svg" xmlns:xlink="http://www.w3.org/1999/xlink" x="0px" y="0px"
	 viewBox="0 0 256 256" style="enable-background:new 0 0 256 256;" xml:space="preserve">
<style type="text/css">
	.st0{fill:url(#SVGID_1_);}
	.st1{fill:url(#SVGID_2_);}
	.st2{fill:url(#SVGID_3_);}
</style>
<g>
	<linearGradient id="SVGID_1_" gradientUnits="userSpaceOnUse" x1="64.9848" y1="428.9176" x2="256.9848" y2="79.641">
		<stop  offset="2.717173e-07" style="stop-color:#DC9457"/>
		<stop  offset="1" style="stop-color:#D4EBFF"/>
	</linearGradient>
	<path class="st0" d="M254.1,43.6c-1.4-3.6-3.3-5.7-5.4-5.7h-28.8c0.3,2.3,0.4,4.8,0.3,7.3l-17.9,181.3c0,1.3-0.1,2.5-0.3,3.6h29.8
		c3.8,0,6.9-6.8,7.3-15.8L256,57C256.2,52.1,255.5,47.3,254.1,43.6z"/>
	<linearGradient id="SVGID_2_" gradientUnits="userSpaceOnUse" x1="-86.7843" y1="345.489" x2="105.2157" y2="-3.7877">
		<stop  offset="2.717173e-07" style="stop-color:#DC9457"/>
		<stop  offset="1" style="stop-color:#D4EBFF"/>
	</linearGradient>
	<path class="st1" d="M1.9,43.6C3.3,40,5.2,38,7.3,38h28.8c-0.3,2.3-0.4,4.8-0.3,7.3l17.9,181.3c0,1.3,0.1,2.5,0.3,3.6H24.2
		c-3.8,0-6.9-6.8-7.3-15.8L0,57C-0.2,52.1,0.5,47.3,1.9,43.6z"/>
	<linearGradient id="SVGID_3_" gradientUnits="userSpaceOnUse" x1="-20.5156" y1="381.9174" x2="171.4844" y2="32.6408">
		<stop  offset="2.717173e-07" style="stop-color:#DC9457"/>
		<stop  offset="1" style="stop-color:#D4EBFF"/>
	</linearGradient>
	<path class="st2" d="M207.9,24.1c-1.6-4.1-3.8-6.4-6.1-6.4H54.2c-2.3,0-4.6,2.3-6.1,6.4c-1.6,4.1-2.3,9.6-2.1,15.1l17.9,181.3
		c0.4,10.1,4,17.9,8.2,17.9h111.8c4.3,0,7.8-7.8,8.2-17.9L210,39.2C210.2,33.6,209.4,28.2,207.9,24.1z"/>
</g>
</svg>
