<?xml version="1.0" encoding="utf-8"?>
<!-- Generator: Adobe Illustrator 23.0.1, SVG Export Plug-In . SVG Version: 6.00 Build 0)  -->
<svg version="1.1" id="Capa_1" xmlns="http://www.w3.org/2000/svg" xmlns:xlink="http://www.w3.org/1999/xlink" x="0px" y="0px"
	 viewBox="0 0 256 256" style="enable-background:new 0 0 256 256;" xml:space="preserve">
<style type="text/css">
	.st0{fill:url(#SVGID_1_);}
</style>
<linearGradient id="SVGID_1_" gradientUnits="userSpaceOnUse" x1="58.7511" y1="-11.6757" x2="251.7362" y2="318.1941">
	<stop  offset="6.073680e-07" style="stop-color:#908273"/>
	<stop  offset="1" style="stop-color:#81707A"/>
</linearGradient>
<path class="st0" d="M225.1,80.2c-7.9,0-14.8,3.3-20,8.5C186.4,75.5,161,67,132.9,66.1l10.7-44.3l39.1,9.6c0,11.5,9.3,21,20.6,21
	c11.6,0,20.9-9.7,20.9-21.2S215.1,10,203.4,10c-8.1,0-15.1,5-18.6,11.8l-44-10.6c-2.6-0.7-5.1,1.2-5.8,3.8L122.9,66
	c-27.9,1.2-53,9.7-71.8,22.9c-5.1-5.4-12.3-8.7-20.2-8.7c-29.3,0-38.9,39.9-12.1,53.5c-0.9,4.2-1.4,8.7-1.4,13.2
	c0,44.8,49.7,81.1,110.8,81.1c61.3,0,111.1-36.3,111.1-81.1c0-4.5-0.5-9.2-1.6-13.4C263.9,119.8,254.3,80.2,225.1,80.2L225.1,80.2z
	 M61.3,136.6c0-11.8,9.3-21.2,20.9-21.2c11.4,0,20.7,9.4,20.7,21.2c0,11.6-9.3,21-20.7,21C70.7,157.6,61.3,148.1,61.3,136.6
	L61.3,136.6z M174.2,186.5c-19.2,19.5-73.3,19.5-92.5,0c-2.1-1.9-2.1-5.2,0-7.3c1.8-1.9,5.1-1.9,7,0c14.6,15.2,63.2,15.5,78.5,0
	c1.8-1.9,5.1-1.9,7,0C176.4,181.4,176.4,184.7,174.2,186.5L174.2,186.5z M173.8,157.6c-11.4,0-20.6-9.4-20.6-20.9
	c0-11.8,9.3-21.2,20.6-21.2c11.6,0,20.9,9.4,20.9,21.2C194.7,148.1,185.4,157.6,173.8,157.6z"/>
</svg>
