<?xml version="1.0" encoding="utf-8"?>
<!-- Generator: Adobe Illustrator 23.0.1, SVG Export Plug-In . SVG Version: 6.00 Build 0)  -->
<svg version="1.1" id="Capa_1" xmlns="http://www.w3.org/2000/svg" xmlns:xlink="http://www.w3.org/1999/xlink" x="0px" y="0px"
	 viewBox="0 0 124.6 128" style="enable-background:new 0 0 124.6 128;" xml:space="preserve">
<style type="text/css">
	.st0{fill:url(#SVGID_1_);}
</style>
<g>
	<g>
		<linearGradient id="SVGID_1_" gradientUnits="userSpaceOnUse" x1="11.3593" y1="3.2216" x2="135.2741" y2="150.9663">
			<stop  offset="6.126958e-07" style="stop-color:#FFFFFF"/>
			<stop  offset="1" style="stop-color:#ECCCD1"/>
		</linearGradient>
		<path class="st0" d="M122.5,78l-11.8-9.2c0.1-1.4,0.3-3.1,0.3-4.8c0-1.8-0.1-3.4-0.3-4.8l11.8-9.2c2.2-1.7,2.8-4.8,1.4-7.3
			l-12.2-21.2c-1.3-2.4-4.2-3.6-7.1-2.5l-13.9,5.6c-2.7-1.9-5.5-3.5-8.3-4.8L80.2,4.9C79.9,2.1,77.5,0,74.6,0H50.1
			c-2.9,0-5.3,2.1-5.6,4.9l-2.1,14.8c-2.8,1.3-5.5,2.9-8.3,4.8l-13.9-5.6c-2.6-1-5.7,0.1-7,2.5L0.8,42.6C-0.7,45-0.1,48.2,2.2,50
			l11.8,9.2c-0.2,1.8-0.3,3.4-0.3,4.8s0.1,3,0.3,4.8L2.2,78c-2.2,1.7-2.8,4.8-1.4,7.3L13,106.6c1.3,2.4,4.1,3.6,7.1,2.5l13.9-5.6
			c2.7,1.9,5.4,3.5,8.3,4.8l2.1,14.7c0.3,2.8,2.8,4.9,5.7,4.9h24.5c2.9,0,5.3-2.1,5.6-4.9l2.1-14.8c2.8-1.3,5.5-2.9,8.3-4.8
			l13.9,5.6c0.7,0.3,1.4,0.4,2.1,0.4c2.1,0,4-1.1,4.9-2.9l12.3-21.3C125.3,82.8,124.7,79.8,122.5,78z M62.3,85.3
			C50.6,85.3,41,75.8,41,64s9.6-21.3,21.3-21.3S83.7,52.2,83.7,64S74.1,85.3,62.3,85.3z"/>
	</g>
</g>
</svg>
