<?xml version="1.0" encoding="iso-8859-1"?>
<!-- Generator: Adobe Illustrator 23.0.1, SVG Export Plug-In . SVG Version: 6.00 Build 0)  -->
<svg version="1.2" baseProfile="tiny" id="CallMobile"
	 xmlns="http://www.w3.org/2000/svg" xmlns:xlink="http://www.w3.org/1999/xlink" x="0px" y="0px" viewBox="0 0 69 126"
	 xml:space="preserve">
<linearGradient id="Mobile_1_" gradientUnits="userSpaceOnUse" x1="8.4279" y1="8.4842" x2="61.5763" y2="117.0696">
	<stop  offset="6.960225e-02" style="stop-color:#DC9457"/>
	<stop  offset="0.2166" style="stop-color:#DC9457"/>
	<stop  offset="1" style="stop-color:#B4705D"/>
</linearGradient>
<path id="Mobile" fill="url(#Mobile_1_)" d="M69,8.1c0-7.7-12.4-9.2-18.3-6.6c0.2,0,0.4,0,0.6,0c-0.3,0-1.9,0.3-2,0.2
	c3.8,0,5.8-0.5,9.3-0.1c-6.2,2-14.8-0.2-21.3-0.1c-6.3,0-12.6,0.1-18.9,0.1c-6.6,0-15.3-1.7-17,6.6c-1.9,9.8,0.2,21,0.3,30.9
	c-0.3-1-0.2-4.1-0.7-4.8c0.1,0.2,0.3,1.4,0.3,1.6c0.6-2.3-2.5-9.6-1.1-11.3C0.9,31.5,1.3,39,1.2,44.2c-0.1-2,0.2-4.4-1.1-6.4
	c0,1.9-0.1,3.9-0.1,5.8c0.3-2.8,0.9,3.2,1,3.8c0-0.4,0-0.8,0-1.1c0.1,1.5,0.5,2.9,0.6,4.4c0-0.2-0.1-0.9-0.2-1.2
	c0.9,1.4,0.9,12.3-0.1,14.4c0.1-0.1-0.3-5-0.5-5c0,3.5,0.9,10.3,0.5,12.1c0,3.4,0.2,6.7,0,10.1c-0.2-3.3-0.1,3.2-0.1,3.8
	c0.1,3.5,0.7,7.9-0.2,11.3c0.1-1.3-0.2-2-0.2-3.1c0.1,4.2-0.1,8.4-0.1,11.7c0,2.4-0.9,8.8,0.1,10.8c0-0.2,0.1-0.3,0.2-0.3
	c0,0.9-0.7,3.2,0.1,4c-0.2-0.3-0.3-0.6-0.3-1c1.4,5,4.6,7.8,10,7.1c-0.1,0.2-3.8,0.5-3.8,0.5c10.4-0.2,21.3-1,31.3-0.3
	c-0.6,0.1-1.2,0.1-1.8,0.2c7.1-0.1,14.2-0.2,21.3,0c-1.8,0.2,3.4,0.2,4.5-0.2c4-1.2,6.2-3.6,6.4-7.1c0,0-0.2,0.8-0.2,0.9
	c-0.2-0.5-0.1,0.8-0.2-0.8c0.5,2.1,0.1-2.6,0.1-2.7c0.1-3.7,0-7.4,0-11.2c0.1-5.5-0.2-11,0-16.5c0,0.7,0,1.5,0.1,2.2
	c0.8,0,0-7.8,0.1-8.8c0,0.3,0.1,0.5,0.1,0.8c0.4-6.6,0.8-12.9,0-19.7c0.2,2,0.1-3.6,0.1-4.4c0-1.1,0-2.1,0-3.2c0-5.6,0-11.2,0-16.8
	C69,28.1,69,18.1,69,8.1z M1.6,21.2c-0.1-0.5-0.1-2.7,0.1-3C1.6,19.2,1.5,20.5,1.6,21.2z M58.8,2.3c1.2-0.3,2.8,0.1,2.7,0.2
	C60.7,2.4,58.2,2.6,58.8,2.3z M58.6,5.8C58.5,5.8,58.2,5.8,58.6,5.8z M3.7,91.7c0.4,0.4,0.5,0.1,0.4-0.8c0,1.8-0.1,3.6-0.1,5.4
	C3.2,95.3,3.7,93,3.7,91.7z M3.7,108.4c0-3.6,0-7.2,0-10.9C4.1,100.5,2.5,106.1,3.7,108.4z M28.1,117.2c1.1,0,9.8-1.7,12.6,0
	c-1,1.4,1.3,1.1,1.1,2.4c-0.3-0.2-0.9,0.6-0.6,1c-0.2-0.1-2,0.7-2.3,1.1c0,0-0.3-1-0.3-0.6c-0.1,0.3-0.2,0.4-0.4,0.6
	c0.4-0.3-1,0.1-0.8-0.3c-0.1,0.8-1.2-0.3-1.5,0.1c-0.2-0.1-0.2,0-0.4,0.2c-0.8-0.2-1.5-1.2-1-0.1c0-0.2-1,0-1.2,0.1
	c0.1-0.1,0-0.2-0.1-0.3c-0.2,0.4-2.2,0.3-2.5,0.3c0.1-0.2-1.7,0-1.6-0.3c-0.6,0-1.6-0.5-1.2-0.8C26.4,121.1,27,117.8,28.1,117.2z
	 M65,25c0.3-0.7-0.2,1-0.2,1.7c0.1-0.3,0.1-0.6,0.2-0.9c0,1.1,0,5.8-0.1,5.3c0.8,8.7,0.1,17.8,0.1,26.6c-0.3-0.2-0.1-3.3-0.2-3.6
	c-0.1,2.3,0.3,4.5,0.2,6.8c-0.5,5.6-1.6,19.3-0.1,26.5c0-0.9,0.1-1.9,0.1-2.8c0,5.1,0.5,7.9-0.3,12.5c1-2.2,0.3,3.7,0.3,3.6
	c0,3.7,0.3,7.5,0,11.2c-0.8,8.6-8,6.7-15,6.7c3.7-0.3-2.9,0.1-3.9-0.4c-0.8-0.5-0.9-2.2-1.8-2.7c-4.2-2.4-12.3-2.5-16.8-0.7
	c-2.2,0.9-2.9,3.1-4.6,3.9c-1.1,0.5-3.8,0-4.9,0c-3.4,0-7.8,0.8-11.1-0.2c1.9,0.2,3.9-0.1,5.8-0.1c-1.3,0-5,0.6-5.9-0.2
	c-1.8-1.7-3.4-4.4-3-9.2c-0.2,0.6-0.1,1.1,0.4,1.4c0.1-0.1,0.2-7.1,0.2-7.3c0.2,0.7,0.4,1.5,0.5,2.2c-0.4-5.3-0.4-10.4-0.6-15.7
	c0.1,1.5,0.5,1.4,0.7,2.6c-1.1-7.3-1.1-13.3-0.9-19.8c0,0.7,0,1.4-0.1,2.1c-0.1-0.9-0.7-5-0.1-4.3c-0.1-3.2,0.6-6.5,0.4-10.4
	c0,0.2,0,0.4,0,0.7C4.7,54.9,5.8,48.5,4.5,43c0.1,1,0.1,2.1,0,3.1c-0.1-0.4-0.2-1.8-0.2-2.5c-0.7,0.5,0,4.1-0.1,4.7
	C3,42.1,4,54.9,4,54.4c0.1,1.2-0.2,2.2,0,3.4c-2-3-0.2-12.7-0.2-16.3c0.8,2.3,0.2-3.4,0.2-3.9C4,36,4.4,34.7,4.4,33
	c0.1,0.7,0.1,1.4,0.2,2.2c0.3-1.4-0.2-2.2-0.1-3.6c-0.2,0.8-0.3,1.5-0.2,2.3C4,33.3,4,32.7,4,32.1c-0.2-0.4-0.4-3.5,0-5.3
	C4,27,4,27.2,4,27.4c-0.2-2.9-0.2-5-0.4-7.8c0.1,0.4,0.5,2.1,0.4,0.2c0.5,0.7,0.2,3.7,0.2,4.4c0-0.2,0.4-3.7,0.4-0.5
	c0.2-0.5-0.1-7.7-0.5-7.8c0.1,0.7,0.1,1.5,0.2,2.2C3.9,18.3,4.4,8,3.7,10.1c-0.1-5,5.9-4.3,9.2-4.3c-3.6,0.8,0.8,0.5,2.4,0.3
	c-0.8,0-1.6,0.1-2.3,0.1c4.3-0.8,9,0.1,13.3-0.2c-0.5,0.2-1,0.2-1.6,0.1c2.2,0.3,2.3-0.1,4,1c1.4,0.9,0.7,2.1,1.6,2.7
	c0-0.1,0-0.3-0.1-0.4c-0.2,1.4,8.1,0.7,8.3,0.5c0.9-0.6,1-2.9,1.4-3.2c0.3-0.2,2.4-1.5,1.1-0.9c1.1,0,2.2,0,3.2,0
	c1.3-0.5-3.5,0.5-3.3,0.7c4.6-1.2,9-0.5,13.8-0.7c-1.4,0.3-3.1,0.2-4.6,0.3c3.3,0.2,6.7-0.6,9.9-0.4c0.8,0.1,3.9,0.7,2.3,0.5
	C67.3,7.5,65,21.3,65,25z"/>
<linearGradient id="CallApp_1_" gradientUnits="userSpaceOnUse" x1="7.7317" y1="8.3655" x2="61.0271" y2="117.2513">
	<stop  offset="2.717173e-07" style="stop-color:#DC9457"/>
	<stop  offset="1" style="stop-color:#B4705D"/>
</linearGradient>
<path id="CallApp" fill="url(#CallApp_1_)" d="M62.3,60.2c0.6,1.1-0.6-3.5-0.9-4.7c-0.6-2.4-1.8-4.9-3-7.3c0.6,0.3,1,0.7,1.2,1.4
	c-0.8-1.6-2.1-2.7-3.3-4c-0.1-0.1-2-2.9-1.2-1.5c-1.3-1.5-2-2.1-3.5-3.3c0.8,0.5,0.9,0.4,0.5-0.2c-1.2-0.8-3.1-2.8-4.6-3
	c1.1,0.7,2.1,1.6,3.1,2.4c-3-2.2-4.1-2.4-6.6-3.7c1.7,0.3-0.9-0.7-1-0.8c1.2,2.1-3-0.4-5.2-0.7c-2.8-0.4-5.5-0.4-8.3,0.1
	c1.1,0-1.1,0.6-1.1,0.7c1.9-0.3,2.5-1,4.3-0.6c-2.3,1.8-6.6,1.8-9.2,3c-3.8,1.6-7.2,4.2-9.9,7.3c-4.5,5.3-6.9,11.8-6.1,18.8
	C7,63.5,6.8,62.8,7,62c0.1,0.2,0.2,0.5,0.2,0.7c-0.2-0.3-0.4-5.3-0.5-5.2c0.1,1.9-0.4,3.7-0.3,5.6c0.1,1,1.2,1.5,1,3
	c-0.3-0.8-0.6-1.9-1.4-2.5c0.1,3.2,1,3.3,2.1,6c0.4,0.9,1.2,4.9,1.6,5.3c-0.3-0.7-0.7-1.3-1.2-1.8c0.2,0.7,1.5,4.2-0.2,1.4
	c-0.1,0.6,1.3,1.9-0.1,0c1.7,3.9,4.9,11.6,9.9,12.5c-1.7-0.9-1.4-1-0.1-0.4c-0.5-0.7-1.1-1.2-1.9-1.5c2.1,0.6,0.7,0.2-0.1-0.5
	c2.1,1.7,4.3,3.5,6.7,4.7c-0.4-0.1-0.7-0.2-1.1-0.3c0.5,0.4,1.1,0.7,1.7,0.7c-0.3-0.3-0.6-0.6-1-0.7c0-0.4,4,1.1,3.2,1
	c1.8,0.4,2.1,0.4,3.6,0.7c-0.4,0.1-0.4,0.2,0.1,0.3c-0.8,0.1-1.5,0-2.2-0.3c1.1,0.4,1.1,0.6,0.1,0.5c0.3,0.4,4,0.5,4.1,0.3
	c-0.4,0-0.8,0-1.1,0c0,0.3,11-1.3,10.9-1.2c-0.4,0.1-0.7,0.3-1.1,0.4c1.4-1,4.5-1.4,6-2.2c-0.8,0.4,3-1.6,3.2-1.3
	c-0.1-0.1,4.8-4.3,5.7-5.3c-0.4,0.4-0.6,0.8-0.6,1.4c0.9-2,2.4-3.5,3.6-5.4c-1.8,4.3,2.3-4,2.2-3.8c1.2-3.2,2-6.9,2.1-10.4
	c0,0.2,0,0.5,0,0.7c0,0-0.1-2.7-0.1-2.7C62.7,63,62.3,60.4,62.3,60.2z M24.3,68.7c0-0.1,0.1,0,0.3,0.1
	C24.5,68.7,24.4,68.7,24.3,68.7z M30.1,74.1c0.2,0,0.7,0.3,0.6,0.6C30.6,74.4,30.3,74.1,30.1,74.1z M49.4,72.8
	c-0.1,0.2-0.2,1-0.4,0.7C48.9,73.1,49.3,72.7,49.4,72.8z M45.4,36.8C46.4,37.3,45.4,36.8,45.4,36.8z M19.4,55.4
	c-1.8-0.7,1-3.8,0.6-4.3c0.1,0.1,0.1,0.2,0,0.4c-0.2-1.5,1.9-2.7,3-3.6c-0.4,0.3-0.7,0.6-0.9,1.1c1-3.9,7.9,0.2,6.8,2.3
	c3.3,5,1.4,5.1-1.9,8.1c0.1,0.1,0.4-0.3,0.4,0.1c0.6,0.6,2.8,4.6,3.7,5.8c-0.4-0.6-0.6-0.5-0.5,0.4c-0.3-0.2-0.6-0.5-0.8-0.8
	c0.2,0.1,0.3,0.2,0.5,0.4c0.5-1.8-6.4-5.4-2.1-7.5c-1.9,2.4,1.4-0.9,1.5-1.7c-1.6,2.1-3.2,2-3,4.6c0.1,1,3.5,5.8,4.5,5.9
	c-0.2-0.2-0.5-0.5-0.7-0.7c1.4,0.3,2.3,1.1,3.1,2c0.5,0.4,1.7,1.4,2.3,1.6c-1.4-0.3-0.1,0.5,0.5,0.8c-0.7-0.5,1.2-0.2,1.8-0.5
	c1.1-0.6,2.1-3.9,3.7-2.8c0.2,0.1,2.3,1.4,3.1,1.9c2.6,1.7,2.2,1.4,3,3.8c0.1,0.4-1.4,2.8-1.2,2.9c0.9-0.6,0.7-1.4,1.4-2.1
	c2.6,4-8,4.7-9.5,4.4c-4.4-0.8-9.2-3.9-12.4-6.9c0,0,1.5,0.4,1.3,0.4c-0.3-0.2-0.4-0.2-0.4,0.1c0.1,0.1,2.8,1.1,2.8,1
	c-0.3-0.1-4.2-2.1-4.4-2.5c0.3,0,0.3-0.1,0-0.3c0.6,0.4,1,0.8,1.9,0.5c-1.2-1.1-2.3-0.7-3-1.4c-0.2-0.2-2.5-3.3-2.1-3.1
	c0.2,0.4,0.6,0.7,1,0.8c-1.3-1.6-5.7-6.5-4.4-8.9c0.1,0.4,0.2,0.7,0.5,0.9C19.1,57.2,19.2,56.1,19.4,55.4z M13.7,82.3
	c0.1,0.1,0.1,0.2,0.2,0.2C13.8,82.4,13.8,82.4,13.7,82.3z M13.9,82.9c0.2-0.8,0.6-0.5,1.3,0.8C14.8,83.5,14.4,83.2,13.9,82.9z"/>
</svg>
